# xmcd CD database file
#
# Track frame offsets:
#	150
#	26689
#	41271
#	64173
#	92570
#	117923
#	132995
#	169552
#	193091
#	203772
#	222978
#	238536
#	278683
#	307231
#
# Disc length: 4374 seconds
#
# Revision: 4
# Processed by: cddbd v1.5.2PL0 Copyright (c) Steve Scherf et al.
# Submitted via: CDex 1.51
#
DISCID=c611140e
DTITLE=Gary Moore - Live At Montreux - Essential Montreux - CD2 - 1995
DYEAR=1995
DGENRE=Blues
TTITLE0=If You Be My Baby (Live)
TTITLE1=Long Grey Mare (Live)
TTITLE2=Oh Pretty Woman (Live)
TTITLE3=I Loved Another Woman (Live)
TTITLE4=Merry-Go-Round (Live)
TTITLE5=The Stumble (Live)
TTITLE6=Need Your Love So Bad (Live)
TTITLE7=You Don`t Love Me (Live)
TTITLE8=Key To Love (Live)
TTITLE9=All Your Love (Live)
TTITLE10=Since I Met You Baby (Live)
TTITLE11=The Blues Is Allright (Live)
TTITLE12=Stop Messing Around (Live)
TTITLE13=Jumping At Shadows (Live)
EXTD=YEAR: 1995
EXTT0=
EXTT1=
EXTT2=
EXTT3=
EXTT4=
EXTT5=
EXTT6=
EXTT7=
EXTT8=
EXTT9=
EXTT10=
EXTT11=
EXTT12=
EXTT13=
PLAYORDER=
